<svg width="14" height="19" viewBox="0 0 14 19" fill="none" xmlns="http://www.w3.org/2000/svg">
<path d="M6.21178 10.8001H4.12132C4.08025 10.8001 4.04086 10.8164 4.01182 10.8455C3.98278 10.8745 3.96647 10.9139 3.96647 10.955V11.8841C3.96647 11.9251 3.98278 11.9645 4.01182 11.9936C4.04086 12.0226 4.08025 12.0389 4.12132 12.0389H6.21178V14.1294C6.21178 14.1705 6.22809 14.2098 6.25713 14.2389C6.28617 14.2679 6.32556 14.2842 6.36663 14.2842H7.29572C7.33679 14.2842 7.37618 14.2679 7.40522 14.2389C7.43426 14.2098 7.45057 14.1705 7.45057 14.1294V12.0389H9.54103C9.5821 12.0389 9.62148 12.0226 9.65052 11.9936C9.67956 11.9645 9.69588 11.9251 9.69588 11.8841V10.955C9.69588 10.9139 9.67956 10.8745 9.65052 10.8455C9.62148 10.8164 9.5821 10.8001 9.54103 10.8001H7.45057V8.70967C7.45057 8.6686 7.43426 8.62922 7.40522 8.60018C7.37618 8.57114 7.33679 8.55482 7.29572 8.55482H6.36663C6.32556 8.55482 6.28617 8.57114 6.25713 8.60018C6.22809 8.62922 6.21178 8.6686 6.21178 8.70967V10.8001ZM13.4626 5.1617C13.5787 5.27783 13.6445 5.43462 13.6445 5.59914V17.5361C13.6445 17.8787 13.3677 18.1555 13.0251 18.1555H0.637218C0.294615 18.1555 0.0178223 17.8787 0.0178223 17.5361V1.43177C0.0178223 1.08917 0.294615 0.812378 0.637218 0.812378H8.85776C9.02229 0.812378 9.18101 0.878189 9.29714 0.994325L13.4626 5.1617ZM12.216 5.88368L8.57322 2.24086V5.88368H12.216Z" fill="#A80004"/>
</svg>
