<svg width="19" height="21" viewBox="0 0 19 21" fill="none" xmlns="http://www.w3.org/2000/svg">
<path d="M4.09438 0.505615C3.13961 0.505615 2.22393 0.927043 1.5488 1.67719C0.873669 2.42733 0.494385 3.44475 0.494385 4.50562V10.5056C0.494385 11.5665 0.873669 12.5839 1.5488 13.334C2.22393 14.0842 3.13961 14.5056 4.09438 14.5056H9.64738C9.85969 15.1728 10.2774 15.7352 10.8268 16.0932C11.3762 16.4513 12.0218 16.5821 12.6495 16.4624C13.2773 16.3427 13.8468 15.9803 14.2573 15.4393C14.6678 14.8982 14.893 14.2133 14.893 13.5056C14.893 12.7979 14.6678 12.113 14.2573 11.572C13.8468 11.0309 13.2773 10.6685 12.6495 10.5488C12.0218 10.4291 11.3762 10.5599 10.8268 10.918C10.2774 11.2761 9.85969 11.8384 9.64738 12.5056H4.09438C3.617 12.5056 3.15916 12.2949 2.82159 11.9198C2.48403 11.5448 2.29438 11.036 2.29438 10.5056V4.50562C2.29438 3.97518 2.48403 3.46647 2.82159 3.0914C3.15916 2.71633 3.617 2.50562 4.09438 2.50562H9.49438C9.97177 2.50562 10.4296 2.71633 10.7672 3.0914C11.1047 3.46647 11.2944 3.97518 11.2944 4.50562H13.0944C13.0944 3.44475 12.7151 2.42733 12.04 1.67719C11.3648 0.927043 10.4492 0.505615 9.49438 0.505615H4.09438ZM14.8944 20.5056C15.8492 20.5056 16.7648 20.0842 17.44 19.334C18.1151 18.5839 18.4944 17.5665 18.4944 16.5056V10.5056C18.4944 9.44475 18.1151 8.42733 17.44 7.67719C16.7648 6.92704 15.8492 6.50562 14.8944 6.50562H9.34138C9.12908 5.8384 8.71132 5.27606 8.16195 4.91798C7.61258 4.55991 6.96697 4.42915 6.33922 4.54882C5.71148 4.66849 5.14202 5.03089 4.73149 5.57196C4.32096 6.11302 4.0958 6.79793 4.0958 7.50562C4.0958 8.2133 4.32096 8.89821 4.73149 9.43927C5.14202 9.98034 5.71148 10.3427 6.33922 10.4624C6.96697 10.5821 7.61258 10.4513 8.16195 10.0932C8.71132 9.73517 9.12908 9.17283 9.34138 8.50562H14.8944C15.3718 8.50562 15.8296 8.71633 16.1672 9.0914C16.5047 9.46647 16.6944 9.97518 16.6944 10.5056V16.5056C16.6944 17.036 16.5047 17.5448 16.1672 17.9198C15.8296 18.2949 15.3718 18.5056 14.8944 18.5056H9.49438C9.01699 18.5056 8.55916 18.2949 8.22159 17.9198C7.88403 17.5448 7.69438 17.036 7.69438 16.5056H5.89438C5.89438 17.5665 6.27367 18.5839 6.9488 19.334C7.62393 20.0842 8.53961 20.5056 9.49438 20.5056H14.8944Z" fill="white"/>
</svg>
