<svg width="105" height="39" viewBox="0 0 105 39" fill="none" xmlns="http://www.w3.org/2000/svg">
<g filter="url(#filter0_d_501_27)">
<rect x="4.43579" y="0.015625" width="96" height="30" rx="10" fill="#E3262E" fill-opacity="0.7" shape-rendering="crispEdges"/>
</g>
<path d="M87.2511 14.8531H77.2758C77.1844 14.8531 77.1095 14.9279 77.1095 15.0194V16.1832C77.1095 16.2746 77.1844 16.3494 77.2758 16.3494H87.2511C87.3426 16.3494 87.4174 16.2746 87.4174 16.1832V15.0194C87.4174 14.9279 87.3426 14.8531 87.2511 14.8531ZM87.4174 10.6136C87.4174 10.5222 87.3426 10.4473 87.2511 10.4473H77.2758C77.1844 10.4473 77.1095 10.5222 77.1095 10.6136V11.7774C77.1095 11.8688 77.1844 11.9436 77.2758 11.9436H87.2511C87.3426 11.9436 87.4174 11.8688 87.4174 11.7774V10.6136ZM76.9433 20.7136H93.2363C93.3278 20.7136 93.4026 20.6388 93.4026 20.5474V19.3836C93.4026 19.2921 93.3278 19.2173 93.2363 19.2173H76.9433C76.8518 19.2173 76.777 19.2921 76.777 19.3836V20.5474C76.777 20.6388 76.8518 20.7136 76.9433 20.7136ZM76.9433 7.57943H93.2363C93.3278 7.57943 93.4026 7.50462 93.4026 7.41318V6.24939C93.4026 6.15795 93.3278 6.08313 93.2363 6.08313H76.9433C76.8518 6.08313 76.777 6.15795 76.777 6.24939V7.41318C76.777 7.50462 76.8518 7.57943 76.9433 7.57943ZM92.7708 10.6946L89.5226 13.2529C89.5007 13.2701 89.483 13.292 89.4709 13.317C89.4587 13.3421 89.4524 13.3695 89.4524 13.3973C89.4524 13.4252 89.4587 13.4526 89.4709 13.4776C89.483 13.5026 89.5007 13.5246 89.5226 13.5418L92.7708 16.1021C92.8914 16.1977 93.0701 16.1125 93.0701 15.9587V10.8401C93.0701 10.8054 93.0603 10.7714 93.0419 10.742C93.0235 10.7125 92.9972 10.6889 92.966 10.6737C92.9348 10.6585 92.8999 10.6525 92.8654 10.6562C92.8309 10.6599 92.7981 10.6732 92.7708 10.6946V10.6946Z" fill="white"/>
<path d="M20.3335 13.9156H15.9055V10.5436H20.7415V9.61962H14.9215V19.0156H15.9055V14.8276H20.3335V13.9156ZM28.4187 9.61962H22.5387V19.0156H28.4667V18.1036H23.5227V14.6956H27.9987V13.7836H23.5227V10.5316H28.4187V9.61962ZM34.3165 19.1116C35.3845 19.1116 36.2965 18.8356 37.0285 18.2716C37.7725 17.7076 38.2885 17.0236 38.5645 16.2196L37.6765 15.7996C37.1365 17.2756 36.0205 18.1756 34.3525 18.1756C33.2845 18.1756 32.4085 17.8036 31.7125 17.0716C31.0165 16.3396 30.6685 15.4036 30.6685 14.2876C30.6685 13.1716 31.0285 12.2596 31.7365 11.5396C32.4565 10.8196 33.3205 10.4596 34.3405 10.4596C35.2405 10.4596 35.9605 10.6876 36.5005 11.1436C37.0525 11.5876 37.4365 12.1516 37.6645 12.8116L38.5525 12.4036C38.3005 11.6116 37.8085 10.9396 37.0765 10.3756C36.3445 9.81162 35.4445 9.52362 34.3645 9.52362C33.0565 9.52362 31.9405 9.97962 31.0165 10.8916C30.0925 11.7916 29.6365 12.9436 29.6365 14.3476C29.6365 15.7396 30.0805 16.8796 30.9805 17.7796C31.8805 18.6676 32.9965 19.1116 34.3165 19.1116ZM41.3235 14.7196H46.6755V19.0156H47.6595V9.61962H46.6755V13.7716H41.3235V9.61962H40.3395V19.0156H41.3235V14.7196ZM51.045 16.6156H56.169L57.189 19.0156H58.233L54.177 9.61962H53.061L49.005 19.0156H50.013L51.045 16.6156ZM51.417 15.7156L53.601 10.6396L55.785 15.7156H51.417ZM62.4857 15.2116L65.2577 19.0156H66.4577L63.5537 15.0436C64.2977 14.9476 64.9097 14.6716 65.4017 14.2036C65.8937 13.7356 66.1337 13.1236 66.1337 12.3556C66.1337 11.5756 65.8577 10.9156 65.2937 10.3996C64.7417 9.88362 63.9257 9.61962 62.8337 9.61962H59.5817V19.0156H60.5657V15.2116H62.4857ZM60.5657 10.5436H62.7737C64.4177 10.5436 65.1377 11.3356 65.1377 12.3916C65.1377 12.9196 64.9337 13.3756 64.5377 13.7476C64.1417 14.1196 63.5417 14.3116 62.7497 14.3116H60.5657V10.5436Z" fill="white"/>
<defs>
<filter id="filter0_d_501_27" x="0.435791" y="0.015625" width="104" height="38" filterUnits="userSpaceOnUse" color-interpolation-filters="sRGB">
<feFlood flood-opacity="0" result="BackgroundImageFix"/>
<feColorMatrix in="SourceAlpha" type="matrix" values="0 0 0 0 0 0 0 0 0 0 0 0 0 0 0 0 0 0 127 0" result="hardAlpha"/>
<feOffset dy="4"/>
<feGaussianBlur stdDeviation="2"/>
<feComposite in2="hardAlpha" operator="out"/>
<feColorMatrix type="matrix" values="0 0 0 0 0 0 0 0 0 0 0 0 0 0 0 0 0 0 0.1 0"/>
<feBlend mode="normal" in2="BackgroundImageFix" result="effect1_dropShadow_501_27"/>
<feBlend mode="normal" in="SourceGraphic" in2="effect1_dropShadow_501_27" result="shape"/>
</filter>
</defs>
</svg>
