<svg width="11" height="9" viewBox="0 0 11 9" fill="none" xmlns="http://www.w3.org/2000/svg">
<path d="M9.96597 0.909342L0.653219 0.909342C0.558932 0.909638 0.466512 0.935643 0.385904 0.984557C0.305297 1.03347 0.239556 1.10344 0.195759 1.18694C0.151961 1.27044 0.131764 1.3643 0.137343 1.45842C0.142922 1.55255 0.174065 1.64336 0.22742 1.7211L4.8838 8.44698C5.07678 8.72584 5.54138 8.72584 5.73488 8.44698L10.3913 1.7211C10.4452 1.64353 10.4768 1.55266 10.4826 1.45838C10.4885 1.3641 10.4685 1.27002 10.4246 1.18634C10.3808 1.10267 10.3148 1.0326 10.234 0.98377C10.1531 0.934935 10.0604 0.909194 9.96597 0.909342Z" fill="#A80004"/>
</svg>
