<svg width="16" height="16" viewBox="0 0 16 16" fill="none" xmlns="http://www.w3.org/2000/svg">
<path d="M15.3862 14.4705H1.26812C0.928601 14.4705 0.654297 14.7448 0.654297 15.0843V15.7749C0.654297 15.8593 0.723352 15.9283 0.807754 15.9283H15.8465C15.9309 15.9283 16 15.8593 16 15.7749V15.0843C16 14.7448 15.7257 14.4705 15.3862 14.4705ZM3.44913 12.8592C3.48749 12.8592 3.52586 12.8553 3.56422 12.8496L6.79065 12.2837C6.82902 12.2761 6.86546 12.2588 6.89232 12.23L15.0236 4.09872C15.0414 4.08097 15.0555 4.0599 15.0651 4.03669C15.0748 4.01349 15.0797 3.98861 15.0797 3.96349C15.0797 3.93836 15.0748 3.91349 15.0651 3.89028C15.0555 3.86708 15.0414 3.846 15.0236 3.82825L11.8355 0.63827C11.7991 0.601824 11.7511 0.582642 11.6994 0.582642C11.6476 0.582642 11.5996 0.601824 11.5632 0.63827L3.43186 8.76956C3.40309 8.79834 3.38583 8.83286 3.37816 8.87123L2.81228 12.0977C2.79362 12.2004 2.80029 12.3062 2.83171 12.4058C2.86313 12.5054 2.91835 12.5958 2.99259 12.6693C3.1192 12.792 3.27841 12.8592 3.44913 12.8592Z" fill="#A80004"/>
</svg>
