<svg width="20" height="22" viewBox="0 0 20 22" fill="none" xmlns="http://www.w3.org/2000/svg">
<path d="M7.4 21.2344H1.6C1.26863 21.2344 1 20.9657 1 20.6344V16.8344C1 16.503 1.26863 16.2344 1.6 16.2344H7.4C7.73137 16.2344 8 16.503 8 16.8344V20.6344C8 20.9657 7.73137 21.2344 7.4 21.2344Z" stroke="black" stroke-width="1.5"/>
<path d="M12.9 6.23438H7.1C6.76863 6.23438 6.5 5.96575 6.5 5.63437V1.83437C6.5 1.503 6.76863 1.23438 7.1 1.23438H12.9C13.2314 1.23438 13.5 1.503 13.5 1.83437V5.63437C13.5 5.96575 13.2314 6.23438 12.9 6.23438Z" stroke="black" stroke-width="1.5"/>
<path d="M18.4 21.2344H12.6C12.2686 21.2344 12 20.9657 12 20.6344V16.8344C12 16.503 12.2686 16.2344 12.6 16.2344H18.4C18.7314 16.2344 19 16.503 19 16.8344V20.6344C19 20.9657 18.7314 21.2344 18.4 21.2344Z" stroke="black" stroke-width="1.5"/>
<path d="M10 10.7344V6.23438M4.5 16.2344V12.7344C4.5 12.2039 4.71071 11.6952 5.08579 11.3202C5.46086 10.9451 5.96957 10.7344 6.5 10.7344H13.5C14.0304 10.7344 14.5391 10.9451 14.9142 11.3202C15.2893 11.6952 15.5 12.2039 15.5 12.7344V16.2344H4.5Z" stroke="black" stroke-width="1.5"/>
</svg>
