<svg width="16" height="16" viewBox="0 0 16 16" fill="none" xmlns="http://www.w3.org/2000/svg">
<path d="M5.61756 11.385L7.16955 9.83206C7.21458 9.78857 7.25049 9.73655 7.2752 9.67903C7.29991 9.62151 7.31291 9.55965 7.31346 9.49705C7.314 9.43445 7.30207 9.37237 7.27837 9.31444C7.25466 9.2565 7.21966 9.20386 7.17539 9.15959C7.13113 9.11533 7.07849 9.08032 7.02055 9.05662C6.96261 9.03291 6.90053 9.02099 6.83793 9.02153C6.77534 9.02207 6.71347 9.03508 6.65595 9.05979C6.59844 9.08449 6.54642 9.12041 6.50293 9.16544L5.75522 9.91315V4.451C5.75522 4.32597 5.70555 4.20605 5.61713 4.11764C5.52872 4.02923 5.40881 3.97956 5.28377 3.97956C5.15874 3.97956 5.03882 4.02923 4.95041 4.11764C4.862 4.20605 4.81233 4.32597 4.81233 4.451V9.91315L4.06462 9.16544C4.02113 9.12041 3.96911 9.08449 3.91159 9.05979C3.85407 9.03508 3.79221 9.02207 3.72961 9.02153C3.66701 9.02099 3.60493 9.03291 3.547 9.05662C3.48906 9.08032 3.43642 9.11533 3.39215 9.15959C3.34789 9.20386 3.31288 9.2565 3.28918 9.31444C3.26547 9.37237 3.25355 9.43445 3.25409 9.49705C3.25463 9.55965 3.26764 9.62151 3.29235 9.67903C3.31705 9.73655 3.35297 9.78857 3.398 9.83206L4.94999 11.385C4.99378 11.4289 5.04581 11.4637 5.10308 11.4875C5.16036 11.5113 5.22176 11.5235 5.28377 11.5235C5.34578 11.5235 5.40719 11.5113 5.46446 11.4875C5.52174 11.4637 5.57376 11.4289 5.61756 11.385ZM12.8269 5.67015L11.2749 4.11722C11.2311 4.07331 11.1791 4.03848 11.1218 4.01471C11.0645 3.99095 11.0031 3.97871 10.9411 3.97871C10.8791 3.97871 10.8177 3.99095 10.7604 4.01471C10.7031 4.03848 10.6511 4.07331 10.6073 4.11722L9.05532 5.67015C9.01029 5.71364 8.97438 5.76567 8.94967 5.82318C8.92496 5.8807 8.91196 5.94256 8.91141 6.00516C8.91087 6.06776 8.9228 6.12984 8.9465 6.18778C8.97021 6.24572 9.00521 6.29835 9.04948 6.34262C9.09374 6.38688 9.14638 6.42189 9.20432 6.4456C9.26226 6.4693 9.32434 6.48123 9.38694 6.48068C9.44953 6.48014 9.5114 6.46713 9.56892 6.44243C9.62643 6.41772 9.67845 6.3818 9.72194 6.33678L10.4697 5.58907V11.0512C10.4697 11.1762 10.5193 11.2962 10.6077 11.3846C10.6961 11.473 10.8161 11.5227 10.9411 11.5227C11.0661 11.5227 11.186 11.473 11.2745 11.3846C11.3629 11.2962 11.4125 11.1762 11.4125 11.0512V5.58907L12.1603 6.33678C12.2037 6.3818 12.2558 6.41772 12.3133 6.44243C12.3708 6.46713 12.4327 6.48014 12.4953 6.48068C12.5579 6.48123 12.6199 6.4693 12.6779 6.4456C12.7358 6.42189 12.7885 6.38688 12.8327 6.34262C12.877 6.29835 12.912 6.24572 12.9357 6.18778C12.9594 6.12984 12.9713 6.06776 12.9708 6.00516C12.9702 5.94256 12.9572 5.8807 12.9325 5.82318C12.9078 5.76567 12.8719 5.71364 12.8269 5.67015ZM15.6555 7.75111C15.6555 9.75166 14.8608 11.6703 13.4462 13.0849C12.0316 14.4995 10.113 15.2942 8.11243 15.2942C6.11188 15.2942 4.19326 14.4995 2.77866 13.0849C1.36405 11.6703 0.569336 9.75166 0.569336 7.75111C0.569336 5.75055 1.36405 3.83194 2.77866 2.41733C4.19326 1.00273 6.11188 0.208008 8.11243 0.208008C10.113 0.208008 12.0316 1.00273 13.4462 2.41733C14.8608 3.83194 15.6555 5.75055 15.6555 7.75111ZM8.11243 14.3513C8.97919 14.3513 9.83745 14.1806 10.6382 13.8489C11.439 13.5172 12.1666 13.031 12.7795 12.4182C13.3924 11.8053 13.8785 11.0777 14.2102 10.2769C14.5419 9.47612 14.7126 8.61786 14.7126 7.75111C14.7126 6.88435 14.5419 6.02609 14.2102 5.22532C13.8785 4.42454 13.3924 3.69694 12.7795 3.08405C12.1666 2.47117 11.439 1.985 10.6382 1.65331C9.83745 1.32161 8.97919 1.1509 8.11243 1.1509C6.36195 1.1509 4.68316 1.84627 3.44538 3.08405C2.2076 4.32183 1.51222 6.00062 1.51222 7.75111C1.51222 9.50159 2.2076 11.1804 3.44538 12.4182C4.68316 13.6559 6.36195 14.3513 8.11243 14.3513Z" fill="white"/>
</svg>
