<svg width="134" height="62" viewBox="0 0 134 62" fill="none" xmlns="http://www.w3.org/2000/svg">
<path fill-rule="evenodd" clip-rule="evenodd" d="M110.611 4.71375C106.42 5.05353 99.8339 0.098379 94.7288 0.098379C90.0018 0.0700639 86.5668 4.57217 86.5983 7.71515C86.4408 11.8775 90.8526 15.7 94.9494 15.5018C100.244 15.5301 104.183 9.75384 110.832 9.75384C117.45 9.69721 122.65 14.9921 122.87 20.6269C123.406 25.9501 116.725 29.9425 116.41 34.7278C116.504 38.7486 119.971 42.2313 125.076 42.5145C128.543 42.4295 133.963 40.2209 133.994 34.8127C134.215 31.3866 127.912 24.4777 128.448 20.6269C128.416 16.0964 133.301 11.9907 133.994 7.57358C134.152 3.77935 129.992 0.21164 125.454 0.0134336C120.444 -0.298033 115.685 4.91195 110.611 4.71375Z" fill="#DB0D15"/>
<path d="M33.9713 61.0606V42.1177C33.9713 41.1267 33.4986 40.702 32.4587 40.702H26.4081V61.0606H16.9857V40.702H11.0612C9.9582 40.702 9.45398 41.1267 9.45398 42.1177V61.0606H0V38.8615C0 34.3028 2.52106 32.2358 7.53167 32.2358H35.9251C40.9357 32.2358 43.3938 34.3311 43.3938 38.9181V61.0606H33.9713ZM55.8415 61.0606C50.7364 61.0606 48.1523 58.8803 48.1523 54.4914V38.8615C48.1523 34.3028 50.6734 32.2358 55.684 32.2358H69.8649C74.8755 32.2358 77.3966 34.3311 77.3966 38.9181V54.2932C77.3966 58.7953 74.8756 61.0606 69.991 61.0606H55.8415ZM67.9426 42.1177C67.9426 41.1267 67.3754 40.702 66.2724 40.702H59.2765C58.1735 40.702 57.5433 41.1267 57.5433 42.1177V50.9237C57.5433 51.9714 58.1735 52.566 59.2765 52.566H66.2724C67.3754 52.566 67.9426 51.9997 67.9426 51.0087V42.1177ZM82.0921 61.0606V23.7412H91.5146V32.2074H103.805C108.815 32.2074 111.336 34.3028 111.336 38.8332V54.4631C111.336 58.852 108.784 61.0322 103.647 61.0322H82.0921V61.0606ZM101.914 42.1177C101.914 41.1267 101.284 40.702 100.212 40.702H91.5461V52.566H100.212C101.315 52.566 101.914 51.9431 101.914 50.9237V42.1177Z" fill="#26231E"/>
</svg>
