<svg width="21" height="22" viewBox="0 0 21 22" fill="none" xmlns="http://www.w3.org/2000/svg">
<path d="M7.89438 21.0488H2.09438C1.76301 21.0488 1.49438 20.7802 1.49438 20.4488V16.6488C1.49438 16.3175 1.76301 16.0488 2.09438 16.0488H7.89438C8.22576 16.0488 8.49438 16.3175 8.49438 16.6488V20.4488C8.49438 20.7802 8.22576 21.0488 7.89438 21.0488Z" stroke="white" stroke-width="1.5"/>
<path d="M13.3944 6.04883H7.59438C7.26301 6.04883 6.99438 5.7802 6.99438 5.44883V1.64883C6.99438 1.31746 7.26301 1.04883 7.59438 1.04883H13.3944C13.7258 1.04883 13.9944 1.31746 13.9944 1.64883V5.44883C13.9944 5.7802 13.7258 6.04883 13.3944 6.04883Z" stroke="white" stroke-width="1.5"/>
<path d="M18.8944 21.0488H13.0944C12.763 21.0488 12.4944 20.7802 12.4944 20.4488V16.6488C12.4944 16.3175 12.763 16.0488 13.0944 16.0488H18.8944C19.2258 16.0488 19.4944 16.3175 19.4944 16.6488V20.4488C19.4944 20.7802 19.2258 21.0488 18.8944 21.0488Z" stroke="white" stroke-width="1.5"/>
<path d="M10.4944 10.5488V6.04883M4.99438 16.0488V12.5488C4.99438 12.0184 5.2051 11.5097 5.58017 11.1346C5.95524 10.7595 6.46395 10.5488 6.99438 10.5488H13.9944C14.5248 10.5488 15.0335 10.7595 15.4086 11.1346C15.7837 11.5097 15.9944 12.0184 15.9944 12.5488V16.0488H4.99438Z" stroke="white" stroke-width="1.5"/>
</svg>
