<svg width="18" height="15" viewBox="0 0 18 15" fill="none" xmlns="http://www.w3.org/2000/svg">
<path d="M6.57455 5.86051H16.5499C16.6413 5.86051 16.7161 5.78569 16.7161 5.69425V4.53047C16.7161 4.43902 16.6413 4.36421 16.5499 4.36421H6.57455C6.48311 4.36421 6.4083 4.43902 6.4083 4.53047V5.69425C6.4083 5.78569 6.48311 5.86051 6.57455 5.86051ZM6.4083 10.1C6.4083 10.1915 6.48311 10.2663 6.57455 10.2663H16.5499C16.6413 10.2663 16.7161 10.1915 16.7161 10.1V8.93624C16.7161 8.8448 16.6413 8.76998 16.5499 8.76998H6.57455C6.48311 8.76998 6.4083 8.8448 6.4083 8.93624V10.1ZM16.8824 0H0.589351C0.497911 0 0.423096 0.074815 0.423096 0.166256V1.33004C0.423096 1.42149 0.497911 1.4963 0.589351 1.4963H16.8824C16.9738 1.4963 17.0487 1.42149 17.0487 1.33004V0.166256C17.0487 0.074815 16.9738 0 16.8824 0ZM16.8824 13.1342H0.589351C0.497911 13.1342 0.423096 13.209 0.423096 13.3004V14.4642C0.423096 14.5557 0.497911 14.6305 0.589351 14.6305H16.8824C16.9738 14.6305 17.0487 14.5557 17.0487 14.4642V13.3004C17.0487 13.209 16.9738 13.1342 16.8824 13.1342ZM1.05487 10.019L4.30309 7.46072C4.32496 7.44353 4.34264 7.4216 4.35479 7.39658C4.36695 7.37156 4.37327 7.3441 4.37327 7.31629C4.37327 7.28847 4.36695 7.26101 4.35479 7.23599C4.34264 7.21097 4.32496 7.18904 4.30309 7.17185L1.05487 4.61151C0.934332 4.51592 0.755607 4.60112 0.755607 4.75491V9.8735C0.755596 9.90821 0.765352 9.94223 0.78376 9.97165C0.802169 10.0011 0.828486 10.0247 0.859703 10.0399C0.890921 10.0551 0.925778 10.0612 0.960291 10.0575C0.994803 10.0538 1.02758 10.0404 1.05487 10.019Z" fill="#A80004"/>
</svg>
