<svg width="15" height="15" viewBox="0 0 15 15" fill="none" xmlns="http://www.w3.org/2000/svg">
<path d="M1.08133 2.84019C0.851696 2.59375 0.726682 2.2678 0.732624 1.93101C0.738567 1.59423 0.875001 1.27289 1.11318 1.03471C1.35137 0.796527 1.6727 0.660093 2.00949 0.654151C2.34628 0.648209 2.67222 0.773222 2.91866 1.00285L8.55199 6.63618C8.79543 6.87993 8.93218 7.21035 8.93218 7.55485C8.93218 7.89935 8.79543 8.22976 8.55199 8.47351L2.91866 14.1068C2.67222 14.3365 2.34628 14.4615 2.00949 14.4555C1.6727 14.4496 1.35137 14.3132 1.11318 14.075C0.875001 13.8368 0.738567 13.5155 0.732624 13.1787C0.726682 12.8419 0.851696 12.5159 1.08133 12.2695L5.79599 7.55485L1.08133 2.84019ZM13.7 14.4882C14.0448 14.4882 14.3754 14.3512 14.6192 14.1074C14.863 13.8636 15 13.533 15 13.1882V1.92152C15 1.57674 14.863 1.24608 14.6192 1.00228C14.3754 0.758485 14.0448 0.621521 13.7 0.621521C13.3552 0.621521 13.0245 0.758485 12.7807 1.00228C12.5369 1.24608 12.4 1.57674 12.4 1.92152V13.1882C12.4 13.9058 12.9824 14.4882 13.7 14.4882Z" fill="#A80004"/>
</svg>
