<svg width="9" height="16" viewBox="0 0 9 16" fill="none" xmlns="http://www.w3.org/2000/svg">
<path d="M0.764774 1.00251C0.644545 1.12249 0.54916 1.26501 0.484079 1.4219C0.418998 1.57879 0.385498 1.74698 0.385498 1.91683C0.385498 2.08669 0.418998 2.25488 0.484079 2.41177C0.54916 2.56866 0.644545 2.71118 0.764774 2.83116L5.79681 7.8632L0.764774 12.8952C0.52228 13.1377 0.386047 13.4666 0.386047 13.8096C0.386047 14.1525 0.52228 14.4814 0.764774 14.7239C1.00727 14.9664 1.33616 15.1026 1.6791 15.1026C2.02204 15.1026 2.35093 14.9664 2.59343 14.7239L8.54628 8.77104C8.66651 8.65106 8.7619 8.50854 8.82698 8.35165C8.89206 8.19476 8.92556 8.02657 8.92556 7.85672C8.92556 7.68686 8.89206 7.51867 8.82698 7.36178C8.7619 7.20489 8.66651 7.06237 8.54628 6.94239L2.59343 0.989537C2.1006 0.496708 1.27057 0.496709 0.764774 1.00251Z" fill="#A80004"/>
</svg>
