<svg width="15" height="15" viewBox="0 0 15 15" fill="none" xmlns="http://www.w3.org/2000/svg">
<path d="M14.3923 12.1496C14.6219 12.396 14.747 12.7219 14.741 13.0587C14.7351 13.3955 14.5986 13.7169 14.3604 13.955C14.1223 14.1932 13.8009 14.3297 13.4641 14.3356C13.1274 14.3415 12.8014 14.2165 12.555 13.9869L6.92165 8.35356C6.6782 8.10981 6.54146 7.7794 6.54146 7.4349C6.54146 7.0904 6.6782 6.75998 6.92165 6.51623L12.555 0.882904C12.8014 0.653273 13.1274 0.528257 13.4641 0.5342C13.8009 0.540142 14.1223 0.676578 14.3604 0.91476C14.5986 1.15294 14.7351 1.47428 14.741 1.81106C14.747 2.14785 14.6219 2.4738 14.3923 2.72023L9.67764 7.4349L14.3923 12.1496ZM1.77365 0.501571C1.42887 0.501571 1.09821 0.638535 0.854413 0.882332C0.610616 1.12613 0.473651 1.45679 0.473651 1.80157L0.473651 13.0682C0.473651 13.413 0.610616 13.7437 0.854413 13.9875C1.09821 14.2313 1.42887 14.3682 1.77365 14.3682C2.11843 14.3682 2.44909 14.2313 2.69289 13.9875C2.93668 13.7437 3.07365 13.413 3.07365 13.0682L3.07365 1.80157C3.07365 1.08397 2.49125 0.501571 1.77365 0.501571Z" fill="#A80004"/>
</svg>
