<svg width="9" height="15" viewBox="0 0 9 15" fill="none" xmlns="http://www.w3.org/2000/svg">
<path d="M8.24621 14.6017C8.36644 14.4817 8.46183 14.3392 8.52691 14.1823C8.59199 14.0254 8.62549 13.8572 8.62549 13.6874C8.62549 13.5175 8.59199 13.3493 8.52691 13.1924C8.46183 13.0355 8.36644 12.893 8.24621 12.773L3.21417 7.74099L8.24621 2.70894C8.48871 2.46645 8.62494 2.13756 8.62494 1.79462C8.62494 1.45168 8.48871 1.12278 8.24621 0.880289C8.00372 0.637794 7.67482 0.501565 7.33188 0.501565C6.98895 0.501565 6.66005 0.637794 6.41756 0.880289L0.464704 6.83314C0.344475 6.95313 0.24909 7.09564 0.184009 7.25253C0.118927 7.40943 0.0854292 7.57761 0.0854292 7.74747C0.0854292 7.91733 0.118927 8.08551 0.184009 8.24241C0.24909 8.3993 0.344475 8.54181 0.464704 8.6618L6.41756 14.6146C6.91039 15.1075 7.74041 15.1075 8.24621 14.6017Z" fill="#A80004"/>
</svg>
