<svg width="18" height="19" viewBox="0 0 18 19" fill="none" xmlns="http://www.w3.org/2000/svg">
<path d="M2.44588 18.0266H15.9764C16.4891 18.0266 16.9807 17.8229 17.3432 17.4604C17.7057 17.0979 17.9094 16.6063 17.9094 16.0936V5.46248C17.9101 5.33528 17.8857 5.2092 17.8376 5.09144C17.7895 4.97369 17.7187 4.86659 17.6291 4.77628L13.7632 0.910411C13.6729 0.820838 13.5658 0.749971 13.4481 0.701875C13.3303 0.653779 13.2042 0.6294 13.077 0.630135H2.44588C1.93323 0.630135 1.44158 0.833783 1.07908 1.19628C0.716587 1.55878 0.512939 2.05043 0.512939 2.56307V16.0936C0.512939 16.6063 0.716587 17.0979 1.07908 17.4604C1.44158 17.8229 1.93323 18.0266 2.44588 18.0266ZM12.1106 16.0936H6.31175V11.2613H12.1106V16.0936ZM10.1776 4.49601H8.24469V2.56307H10.1776V4.49601ZM2.44588 2.56307H4.37881V6.42894H12.1106V2.56307H12.6808L15.9764 5.85873V16.0936H14.0435V11.2613C14.0435 10.7486 13.8398 10.257 13.4774 9.89449C13.1149 9.532 12.6232 9.32835 12.1106 9.32835H6.31175C5.7991 9.32835 5.30745 9.532 4.94496 9.89449C4.58246 10.257 4.37881 10.7486 4.37881 11.2613V16.0936H2.44588V2.56307Z" fill="#0B610F"/>
</svg>
