<svg width="17" height="17" viewBox="0 0 17 17" fill="none" xmlns="http://www.w3.org/2000/svg">
<path d="M7.34793 14.4301C8.85798 14.4298 10.3245 13.9243 11.514 12.9941L15.2539 16.7339L16.4568 15.531L12.717 11.7911C13.6477 10.6015 14.1535 9.13461 14.1539 7.62417C14.1539 3.87155 11.1006 0.818237 7.34793 0.818237C3.59531 0.818237 0.541992 3.87155 0.541992 7.62417C0.541992 11.3768 3.59531 14.4301 7.34793 14.4301ZM7.34793 2.51972C10.163 2.51972 12.4524 4.80907 12.4524 7.62417C12.4524 10.4393 10.163 12.7286 7.34793 12.7286C4.53282 12.7286 2.24348 10.4393 2.24348 7.62417C2.24348 4.80907 4.53282 2.51972 7.34793 2.51972Z" fill="#858380" fill-opacity="0.5"/>
</svg>
