<svg width="20" height="19" viewBox="0 0 20 19" fill="none" xmlns="http://www.w3.org/2000/svg">
<path d="M8.05615 3.31104H11.7145C11.7145 2.82591 11.5218 2.36066 11.1787 2.01762C10.8357 1.67459 10.3704 1.48188 9.88531 1.48188C9.40019 1.48188 8.93493 1.67459 8.5919 2.01762C8.24886 2.36066 8.05615 2.82591 8.05615 3.31104ZM6.68428 3.31104C6.68428 2.89067 6.76707 2.47442 6.92794 2.08605C7.08881 1.69769 7.32459 1.34481 7.62184 1.04757C7.91908 0.750322 8.27196 0.514535 8.66033 0.353669C9.04869 0.192802 9.46494 0.110004 9.88531 0.110004C10.3057 0.110004 10.7219 0.192802 11.1103 0.353669C11.4987 0.514535 11.8515 0.750322 12.1488 1.04757C12.446 1.34481 12.6818 1.69769 12.8427 2.08605C13.0035 2.47442 13.0863 2.89067 13.0863 3.31104H18.3452C18.5271 3.31104 18.7016 3.3833 18.8302 3.51194C18.9588 3.64058 19.0311 3.81505 19.0311 3.99697C19.0311 4.17889 18.9588 4.35336 18.8302 4.482C18.7016 4.61064 18.5271 4.68291 18.3452 4.68291H17.1379L16.0679 15.7594C15.9858 16.6081 15.5905 17.3958 14.9591 17.9689C14.3277 18.5419 13.5055 18.8592 12.6528 18.8589H7.11779C6.26527 18.859 5.44328 18.5416 4.81208 17.9686C4.18088 17.3955 3.78573 16.6079 3.70366 15.7594L2.63268 4.68291H1.42544C1.24352 4.68291 1.06905 4.61064 0.940408 4.482C0.81177 4.35336 0.739502 4.17889 0.739502 3.99697C0.739502 3.81505 0.81177 3.64058 0.940408 3.51194C1.06905 3.3833 1.24352 3.31104 1.42544 3.31104H6.68428ZM8.51344 7.65529C8.51344 7.47337 8.44117 7.2989 8.31253 7.17027C8.18389 7.04163 8.00942 6.96936 7.8275 6.96936C7.64558 6.96936 7.47111 7.04163 7.34247 7.17027C7.21384 7.2989 7.14157 7.47337 7.14157 7.65529V14.5146C7.14157 14.6966 7.21384 14.871 7.34247 14.9997C7.47111 15.1283 7.64558 15.2006 7.8275 15.2006C8.00942 15.2006 8.18389 15.1283 8.31253 14.9997C8.44117 14.871 8.51344 14.6966 8.51344 14.5146V7.65529ZM11.9431 6.96936C12.125 6.96936 12.2995 7.04163 12.4281 7.17027C12.5568 7.2989 12.6291 7.47337 12.6291 7.65529V14.5146C12.6291 14.6966 12.5568 14.871 12.4281 14.9997C12.2995 15.1283 12.125 15.2006 11.9431 15.2006C11.7612 15.2006 11.5867 15.1283 11.4581 14.9997C11.3294 14.871 11.2572 14.6966 11.2572 14.5146V7.65529C11.2572 7.47337 11.3294 7.2989 11.4581 7.17027C11.5867 7.04163 11.7612 6.96936 11.9431 6.96936ZM5.06913 15.6277C5.11846 16.1368 5.35561 16.6093 5.73436 16.953C6.11311 17.2968 6.60631 17.4871 7.11779 17.487H12.6528C13.1643 17.4871 13.6575 17.2968 14.0363 16.953C14.415 16.6093 14.6522 16.1368 14.7015 15.6277L15.7606 4.68291H4.01004L5.06913 15.6277Z" fill="#A80004"/>
</svg>
